# xmcd CD database file generated by LOLA_Freedb v0.9beta0
# 
# Track frame offsets:
#      150
#      71513
#      93644
#      116384
#      136822
# 
# Disc length: 2021 seconds
# 
# Revision: 0 
# Processed by: cddbd v1.5.2PL0 Copyright (c) Steve Scherf et al.
# Submitted via: LOLA_Freedb v0.9beta0
# 
DISCID=3d07e305
DTITLE=THP Orchestra - Two Hot For Love !
DYEAR=1977
DGENRE=
TTITLE0=Two Hot For Love
TTITLE1=Early Riser
TTITLE2=Manha De Carniva l(Theme From Black Orpheus)
TTITLE3=Dawn Patrol
TTITLE4=Crazy, Crazy
EXTD=
EXTT0=
EXTT1=
EXTT2=
EXTT3=
EXTT4=
PLAYORDER=
